<svg xmlns="http://www.w3.org/2000/svg" xmlns:xlink="http://www.w3.org/1999/xlink" width="500" zoomAndPan="magnify" viewBox="0 0 375 374.999991" height="500" preserveAspectRatio="xMidYMid meet" version="1.0"><defs><clipPath id="eecf0e38bb"><path d="M 76.46875 206.046875 L 218 206.046875 L 218 253.863281 L 76.46875 253.863281 Z M 76.46875 206.046875 " clip-rule="nonzero"/></clipPath><clipPath id="b7115f943a"><path d="M 113 121.113281 L 262 121.113281 L 262 206 L 113 206 Z M 113 121.113281 " clip-rule="nonzero"/></clipPath><clipPath id="aa63e70cf1"><path d="M 157.015625 231.367188 L 193.898438 231.367188 L 193.898438 253.863281 L 157.015625 253.863281 Z M 157.015625 231.367188 " clip-rule="nonzero"/></clipPath><clipPath id="0d32616cfc"><path d="M 192.304688 206.046875 L 298.394531 206.046875 L 298.394531 232.761719 L 192.304688 232.761719 Z M 192.304688 206.046875 " clip-rule="nonzero"/></clipPath></defs><g clip-path="url(#eecf0e38bb)"><path fill="#f09f62" d="M 76.46875 209.308594 C 101.753906 204.136719 128.347656 205.515625 152.960938 213.269531 C 177.578125 221.023438 200.160156 235.140625 217.914062 253.871094 C 179.929688 228.566406 131.609375 219.0625 86.40625 225.359375 L 76.46875 209.308594 " fill-opacity="1" fill-rule="nonzero"/></g><g clip-path="url(#b7115f943a)"><path fill="#f09f62" d="M 261.355469 200.410156 C 254.480469 198.441406 246.589844 197.445312 237.589844 198.027344 C 251.808594 156.507812 195.449219 149.230469 187.503906 121.113281 C 179.558594 149.230469 123.199219 156.507812 137.414062 198.027344 C 128.414062 197.445312 120.523438 198.441406 113.648438 200.410156 C 125.269531 200.914062 136.835938 202.726562 148.042969 205.839844 C 129.320312 175.589844 174.03125 154.925781 187.503906 142.699219 C 200.972656 154.925781 245.6875 175.589844 226.960938 205.839844 C 238.167969 202.726562 249.734375 200.914062 261.355469 200.410156 " fill-opacity="1" fill-rule="nonzero"/></g><g clip-path="url(#aa63e70cf1)"><path fill="#f09f62" d="M 183.996094 231.382812 C 174.207031 237.820312 165.148438 245.367188 157.089844 253.871094 C 168.542969 246.242188 180.933594 240.050781 193.898438 235.292969 C 190.636719 233.894531 187.335938 232.589844 183.996094 231.382812 " fill-opacity="1" fill-rule="nonzero"/></g><g clip-path="url(#0d32616cfc)"><path fill="#f09f62" d="M 222.042969 213.269531 C 211.71875 216.519531 201.753906 220.898438 192.351562 226.257812 C 195.53125 228.269531 198.640625 230.394531 201.664062 232.636719 C 229.578125 223.761719 259.722656 221.335938 288.597656 225.359375 L 298.535156 209.308594 C 273.253906 204.136719 246.65625 205.515625 222.042969 213.269531 " fill-opacity="1" fill-rule="nonzero"/></g></svg>